0
SECTION
2
HEADER
9
$INSUNITS
70
4
9
$ACADVER
1
AC1014
9
$HANDSEED
5
FFFF
0
ENDSEC
0
SECTION
2
TABLES
0
TABLE
2
VPORT
5
8
100
AcDbSymbolTable
0
ENDTAB
0
TABLE
2
LTYPE
5
5
100
AcDbSymbolTable
0
LTYPE
5
14
100
AcDbSymbolTableRecord
100
AcDbLinetypeTableRecord
2
BYBLOCK
70
0
0
LTYPE
5
15
100
AcDbSymbolTableRecord
100
AcDbLinetypeTableRecord
2
BYLAYER
70
0
0
ENDTAB
0
TABLE
2
LAYER
5
2
100
AcDbSymbolTable
70
2
0
LAYER
5
50
100
AcDbSymbolTableRecord
100
AcDbLayerTableRecord
2
0
70
0
6
CONTINUOUS
0
ENDTAB
0
TABLE
2
STYLE
5
3
100
AcDbSymbolTable
70
1
0
STYLE
5
11
100
AcDbSymbolTableRecord
100
AcDbTextStyleTableRecord
2
STANDARD
70
0
0
ENDTAB
0
TABLE
2
VIEW
5
6
100
AcDbSymbolTable
70
0
0
ENDTAB
0
TABLE
2
UCS
5
7
100
AcDbSymbolTable
70
0
0
ENDTAB
0
TABLE
2
APPID
5
9
100
AcDbSymbolTable
70
2
0
APPID
5
12
100
AcDbSymbolTableRecord
100
AcDbRegAppTableRecord
2
ACAD
70
0
0
ENDTAB
0
TABLE
2
DIMSTYLE
5
A
100
AcDbSymbolTable
70
1
0
ENDTAB
0
TABLE
2
BLOCK_RECORD
5
1
100
AcDbSymbolTable
70
1
0
BLOCK_RECORD
5
1F
100
AcDbSymbolTableRecord
100
AcDbBlockTableRecord
2
*MODEL_SPACE
0
BLOCK_RECORD
5
1B
100
AcDbSymbolTableRecord
100
AcDbBlockTableRecord
2
*PAPER_SPACE
0
ENDTAB
0
ENDSEC
0
SECTION
2
BLOCKS
0
BLOCK
5
20
100
AcDbEntity
100
AcDbBlockBegin
2
*MODEL_SPACE
0
ENDBLK
5
21
100
AcDbEntity
100
AcDbBlockEnd
0
BLOCK
5
1C
100
AcDbEntity
100
AcDbBlockBegin
2
*PAPER_SPACE
0
ENDBLK
5
1D
100
AcDbEntity
100
AcDbBlockEnd
0
ENDSEC
0
SECTION
2
ENTITIES
0
CIRCLE
5
100
100
AcDbEntity
8
0
100
AcDbCircle
10
-89.178593586223428
20
79.999999999999972
30
0
40
1.7500000000000071
0
CIRCLE
5
101
100
AcDbEntity
8
0
100
AcDbCircle
10
89.178593586223315
20
92.000000000000028
30
0
40
1.7500000000000071
0
CIRCLE
5
102
100
AcDbEntity
8
0
100
AcDbCircle
10
89.178593586223315
20
-80.000000000000028
30
0
40
1.7500000000000071
0
CIRCLE
5
103
100
AcDbEntity
8
0
100
AcDbCircle
10
-89.178593586223428
20
91.999999999999957
30
0
40
1.7500000000000071
0
CIRCLE
5
104
100
AcDbEntity
8
0
100
AcDbCircle
10
-89.178593586223485
20
-92.000000000000028
30
0
40
1.7499999999999893
0
CIRCLE
5
105
100
AcDbEntity
8
0
100
AcDbCircle
10
89.178593586223315
20
80
30
0
40
1.7500000000000071
0
CIRCLE
5
106
100
AcDbEntity
8
0
100
AcDbCircle
10
89.178593586223315
20
-91.999999999999957
30
0
40
1.7500000000000071
0
CIRCLE
5
107
100
AcDbEntity
8
0
100
AcDbCircle
10
-89.178593586223485
20
-80.000000000000014
30
0
40
1.7500000000000071
0
ARC
5
108
100
AcDbEntity
8
0
100
AcDbCircle
10
-12.499999999999858
20
54.999999999998508
30
0
40
1.500000000000199
100
AcDbArc
50
90.000000000507541
51
270.0000000005075
0
LINE
5
109
100
AcDbEntity
8
0
100
AcDbLine
10
12.50000000001311
20
53.500000000217227
30
0
11
-12.499999999986571
21
53.499999999998309
31
0
0
ARC
5
110
100
AcDbEntity
8
0
100
AcDbCircle
10
12.499999999999858
20
55.000000000001386
30
0
40
1.4999999997841584
100
AcDbArc
50
-89.999999999493809
51
90.000000000506176
0
LINE
5
111
100
AcDbEntity
8
0
100
AcDbLine
10
-12.500000000013145
20
56.499999999998707
30
0
11
12.499999999986606
21
56.499999999785544
31
0
0
LINE
5
112
100
AcDbEntity
8
0
100
AcDbLine
10
12.499999999986873
20
-56.500000000217412
30
0
11
-12.500000000013145
21
-56.499999999998884
31
0
0
ARC
5
113
100
AcDbEntity
8
0
100
AcDbCircle
10
-12.500000000000018
20
-54.999999999998849
30
0
40
1.5000000000000391
100
AcDbArc
50
89.999999999498584
51
269.99999999949858
0
LINE
5
114
100
AcDbEntity
8
0
100
AcDbLine
10
-12.49999999998689
20
-53.499999999998806
30
0
11
12.500000000013092
21
-53.500000000217369
31
0
0
ARC
5
115
100
AcDbEntity
8
0
100
AcDbCircle
10
12.499999999999982
20
-55.000000000217391
30
0
40
1.5000000000000213
100
AcDbArc
50
-90.000000000500748
51
89.999999999499252
0
ARC
5
116
100
AcDbEntity
8
0
100
AcDbCircle
10
-12.499999999999716
20
92.000000000010189
30
0
40
1.500000000115449
100
AcDbArc
50
89.999999999470759
51
269.99999999947073
0
LINE
5
117
100
AcDbEntity
8
0
100
AcDbLine
10
12.5
20
90.499999999894982
30
0
11
-12.500000000013571
21
90.49999999989474
31
0
0
ARC
5
118
100
AcDbEntity
8
0
100
AcDbCircle
10
12.5
20
91.999999999990578
30
0
40
1.5000000000955893
100
AcDbArc
50
-90
51
90
0
LINE
5
119
100
AcDbEntity
8
0
100
AcDbLine
10
-12.49999999998586
20
93.500000000125638
30
0
11
12.5
21
93.500000000086175
31
0
0
LINE
5
120
100
AcDbEntity
8
0
100
AcDbLine
10
-12.499999999999698
20
-90.499999999895124
30
0
11
12.499999999986162
21
-90.499999999895124
31
0
0
ARC
5
121
100
AcDbEntity
8
0
100
AcDbCircle
10
12.500000000000018
20
-91.999999999895039
30
0
40
1.4999999999999147
100
AcDbArc
50
-89.999999999470759
51
90.000000000529241
0
LINE
5
122
100
AcDbEntity
8
0
100
AcDbLine
10
12.500000000013873
20
-93.499999999894953
30
0
11
-12.499999999999662
21
-93.50000000012578
31
0
0
ARC
5
123
100
AcDbEntity
8
0
100
AcDbCircle
10
-12.49999999999968
20
-92.000000000010459
30
0
40
1.5000000001153246
100
AcDbArc
50
90.000000000000668
51
270.00000000000068
0
LINE
5
124
100
AcDbEntity
8
0
100
AcDbLine
10
-97.178593586223499
20
-76.000000000000028
30
0
11
-97.178593586223471
21
-96.000000000000014
31
0
0
LINE
5
125
100
AcDbEntity
8
0
100
AcDbLine
10
-97.178593586223471
20
-96.000000000000014
30
0
11
97.178593586223471
21
-96.000000000000014
31
0
0
LINE
5
126
100
AcDbEntity
8
0
100
AcDbLine
10
97.178593586223471
20
-96.000000000000014
30
0
11
97.178593586223471
21
-76.000000000000014
31
0
0
LINE
5
127
100
AcDbEntity
8
0
100
AcDbLine
10
97.178593586223471
20
-76.000000000000014
30
0
11
65.178593586223471
21
-76.000000000000057
31
0
0
ARC
5
128
100
AcDbEntity
8
0
100
AcDbCircle
10
65.178593586223471
20
-68.000000000000043
30
0
40
8.0000000000000071
100
AcDbArc
50
180
51
270
0
LINE
5
129
100
AcDbEntity
8
0
100
AcDbLine
10
57.178593586223471
20
-68.000000000000043
30
0
11
57.178593586223379
21
67.999999999999943
31
0
0
ARC
5
130
100
AcDbEntity
8
0
100
AcDbCircle
10
65.178593586223371
20
67.999999999999943
30
0
40
8.0000000000000071
100
AcDbArc
50
90
51
180
0
LINE
5
131
100
AcDbEntity
8
0
100
AcDbLine
10
65.178593586223371
20
75.999999999999943
30
0
11
97.1785935862234
21
75.999999999999943
31
0
0
LINE
5
132
100
AcDbEntity
8
0
100
AcDbLine
10
97.1785935862234
20
75.999999999999943
30
0
11
97.178593586223471
21
96.000000000000014
31
0
0
LINE
5
133
100
AcDbEntity
8
0
100
AcDbLine
10
97.178593586223471
20
96.000000000000014
30
0
11
-97.178593586223471
21
96.000000000000014
31
0
0
LINE
5
134
100
AcDbEntity
8
0
100
AcDbLine
10
-97.178593586223471
20
96.000000000000014
30
0
11
-97.1785935862234
21
75.999999999999943
31
0
0
LINE
5
135
100
AcDbEntity
8
0
100
AcDbLine
10
-97.1785935862234
20
75.999999999999943
30
0
11
-65.1785935862234
21
75.999999999999943
31
0
0
ARC
5
136
100
AcDbEntity
8
0
100
AcDbCircle
10
-65.1785935862234
20
67.999999999999972
30
0
40
8.0000000000000071
100
AcDbArc
50
0
51
90
0
LINE
5
137
100
AcDbEntity
8
0
100
AcDbLine
10
-57.178593586223407
20
67.999999999999972
30
0
11
-57.178593586223471
21
-68.000000000000043
31
0
0
ARC
5
138
100
AcDbEntity
8
0
100
AcDbCircle
10
-65.178593586223471
20
-68.000000000000043
30
0
40
8.0000000000000071
100
AcDbArc
50
-90.000000000000099
51
0
0
LINE
5
139
100
AcDbEntity
8
0
100
AcDbLine
10
-65.178593586223485
20
-76.000000000000057
30
0
11
-97.178593586223499
21
-76.000000000000028
31
0
0
ENDSEC
0
SECTION
2
OBJECTS
0
DICTIONARY
5
C
100
AcDbDictionary
3
ACAD_GROUP
350
D
3
ACAD_MLINESTYLE
350
17
0
DICTIONARY
5
D
100
AcDbDictionary
0
DICTIONARY
5
1A
330
C
100
AcDbDictionary
0
DICTIONARY
5
17
100
AcDbDictionary
0
ENDSEC
0
EOF
