0
SECTION
2
HEADER
9
$INSUNITS
70
4
9
$ACADVER
1
AC1014
9
$HANDSEED
5
FFFF
0
ENDSEC
0
SECTION
2
TABLES
0
TABLE
2
VPORT
5
8
100
AcDbSymbolTable
0
ENDTAB
0
TABLE
2
LTYPE
5
5
100
AcDbSymbolTable
0
LTYPE
5
14
100
AcDbSymbolTableRecord
100
AcDbLinetypeTableRecord
2
BYBLOCK
70
0
0
LTYPE
5
15
100
AcDbSymbolTableRecord
100
AcDbLinetypeTableRecord
2
BYLAYER
70
0
0
ENDTAB
0
TABLE
2
LAYER
5
2
100
AcDbSymbolTable
70
2
0
LAYER
5
50
100
AcDbSymbolTableRecord
100
AcDbLayerTableRecord
2
0
70
0
6
CONTINUOUS
0
ENDTAB
0
TABLE
2
STYLE
5
3
100
AcDbSymbolTable
70
1
0
STYLE
5
11
100
AcDbSymbolTableRecord
100
AcDbTextStyleTableRecord
2
STANDARD
70
0
0
ENDTAB
0
TABLE
2
VIEW
5
6
100
AcDbSymbolTable
70
0
0
ENDTAB
0
TABLE
2
UCS
5
7
100
AcDbSymbolTable
70
0
0
ENDTAB
0
TABLE
2
APPID
5
9
100
AcDbSymbolTable
70
2
0
APPID
5
12
100
AcDbSymbolTableRecord
100
AcDbRegAppTableRecord
2
ACAD
70
0
0
ENDTAB
0
TABLE
2
DIMSTYLE
5
A
100
AcDbSymbolTable
70
1
0
ENDTAB
0
TABLE
2
BLOCK_RECORD
5
1
100
AcDbSymbolTable
70
1
0
BLOCK_RECORD
5
1F
100
AcDbSymbolTableRecord
100
AcDbBlockTableRecord
2
*MODEL_SPACE
0
BLOCK_RECORD
5
1B
100
AcDbSymbolTableRecord
100
AcDbBlockTableRecord
2
*PAPER_SPACE
0
ENDTAB
0
ENDSEC
0
SECTION
2
BLOCKS
0
BLOCK
5
20
100
AcDbEntity
100
AcDbBlockBegin
2
*MODEL_SPACE
0
ENDBLK
5
21
100
AcDbEntity
100
AcDbBlockEnd
0
BLOCK
5
1C
100
AcDbEntity
100
AcDbBlockBegin
2
*PAPER_SPACE
0
ENDBLK
5
1D
100
AcDbEntity
100
AcDbBlockEnd
0
ENDSEC
0
SECTION
2
ENTITIES
0
CIRCLE
5
100
100
AcDbEntity
8
0
100
AcDbCircle
10
-92.000000000000014
20
-19.999999999999986
30
0
40
1.6499999999999915
0
CIRCLE
5
101
100
AcDbEntity
8
0
100
AcDbCircle
10
79.999999999999929
20
-19.999999999999662
30
0
40
1.6499999999999915
0
CIRCLE
5
102
100
AcDbEntity
8
0
100
AcDbCircle
10
-80.000000000000014
20
-19.999999999999961
30
0
40
1.6499999999999915
0
CIRCLE
5
103
100
AcDbEntity
8
0
100
AcDbCircle
10
91.999999999999957
20
-19.999999999999638
30
0
40
1.6499999999999915
0
CIRCLE
5
104
100
AcDbEntity
8
0
100
AcDbCircle
10
67.750000000000057
20
3.999999999999857
30
0
40
1.6500000000000004
0
CIRCLE
5
105
100
AcDbEntity
8
0
100
AcDbCircle
10
67.749999999999943
20
-3.9999999999995639
30
0
40
1.6500000000000004
0
CIRCLE
5
106
100
AcDbEntity
8
0
100
AcDbCircle
10
-67.750000000000057
20
-3.9999999999995639
30
0
40
1.6500000000000004
0
CIRCLE
5
107
100
AcDbEntity
8
0
100
AcDbCircle
10
-67.750000000000057
20
47.499999999999851
30
0
40
1.6500000000000004
0
CIRCLE
5
108
100
AcDbEntity
8
0
100
AcDbCircle
10
-67.750000000000057
20
3.9999999999998459
30
0
40
1.6500000000000004
0
CIRCLE
5
109
100
AcDbEntity
8
0
100
AcDbCircle
10
-67.750000000000057
20
-47.499999999999538
30
0
40
1.6500000000000004
0
CIRCLE
5
110
100
AcDbEntity
8
0
100
AcDbCircle
10
67.749999999999943
20
-47.499999999999531
30
0
40
1.6500000000000004
0
CIRCLE
5
111
100
AcDbEntity
8
0
100
AcDbCircle
10
67.749999999999943
20
47.499999999999858
30
0
40
1.6500000000000004
0
CIRCLE
5
112
100
AcDbEntity
8
0
100
AcDbCircle
10
79.999999999999787
20
2.3980817331903381e-13
30
0
40
1.6499999999999915
0
CIRCLE
5
113
100
AcDbEntity
8
0
100
AcDbCircle
10
-80.000000000000028
20
-55.999999999999872
30
0
40
1.6499999999999915
0
CIRCLE
5
114
100
AcDbEntity
8
0
100
AcDbCircle
10
-80.000000000000128
20
55.999999999999872
30
0
40
1.6499999999999915
0
CIRCLE
5
115
100
AcDbEntity
8
0
100
AcDbCircle
10
79.999999999999972
20
-55.999999999999872
30
0
40
1.6499999999999915
0
CIRCLE
5
116
100
AcDbEntity
8
0
100
AcDbCircle
10
-80.000000000000057
20
-10
30
0
40
1.6499999999999915
0
CIRCLE
5
117
100
AcDbEntity
8
0
100
AcDbCircle
10
-80.000000000000071
20
0
30
0
40
1.6499999999999915
0
CIRCLE
5
118
100
AcDbEntity
8
0
100
AcDbCircle
10
3.5527136788005009e-14
20
-55.999999999999872
30
0
40
1.6499999999999915
0
CIRCLE
5
119
100
AcDbEntity
8
0
100
AcDbCircle
10
-1.7763568394002505e-13
20
56.00000000000005
30
0
40
1.6499999999999915
0
CIRCLE
5
120
100
AcDbEntity
8
0
100
AcDbCircle
10
79.999999999999602
20
56.000000000000234
30
0
40
1.6499999999999915
0
CIRCLE
5
121
100
AcDbEntity
8
0
100
AcDbCircle
10
79.999999999999829
20
-10
30
0
40
1.6499999999999915
0
CIRCLE
5
122
100
AcDbEntity
8
0
100
AcDbCircle
10
198.33945991187164
20
18.364658104865661
30
0
40
1.7000000000000171
0
CIRCLE
5
123
100
AcDbEntity
8
0
100
AcDbCircle
10
166.05967750851823
20
-54.152104290658478
30
0
40
1.7000000000000171
0
CIRCLE
5
124
100
AcDbEntity
8
0
100
AcDbCircle
10
150.13430973246648
20
-58.053006778445308
30
0
40
1.6999999999999993
0
CIRCLE
5
125
100
AcDbEntity
8
0
100
AcDbCircle
10
204.10000000000002
20
3.18036345245579
30
0
40
1.7000000000000171
0
CIRCLE
5
126
100
AcDbEntity
8
0
100
AcDbCircle
10
169.14600358739824
20
51.539040291767257
30
0
40
1.7000000000000171
0
CIRCLE
5
127
100
AcDbEntity
8
0
100
AcDbCircle
10
196.08288582798684
20
-38.540035964534795
30
0
40
1.7000000000000171
0
CIRCLE
5
128
100
AcDbEntity
8
0
100
AcDbCircle
10
97.999999999999972
20
-58.053006778445337
30
0
40
1.6999999999999993
0
CIRCLE
5
129
100
AcDbEntity
8
0
100
AcDbCircle
10
204.10000000000002
20
-25.222872516807996
30
0
40
1.7000000000000171
0
CIRCLE
5
130
100
AcDbEntity
8
0
100
AcDbCircle
10
154.5062923653748
20
58.144522998758532
30
0
40
1.6999999999999993
0
CIRCLE
5
131
100
AcDbEntity
8
0
100
AcDbCircle
10
-198.33945991187164
20
18.364658104865661
30
0
40
1.7000000000000171
0
CIRCLE
5
132
100
AcDbEntity
8
0
100
AcDbCircle
10
-166.05967750851823
20
-54.152104290658478
30
0
40
1.7000000000000171
0
CIRCLE
5
133
100
AcDbEntity
8
0
100
AcDbCircle
10
-150.13430973246648
20
-58.053006778445308
30
0
40
1.6999999999999993
0
CIRCLE
5
134
100
AcDbEntity
8
0
100
AcDbCircle
10
-204.10000000000002
20
3.18036345245579
30
0
40
1.7000000000000171
0
CIRCLE
5
135
100
AcDbEntity
8
0
100
AcDbCircle
10
-169.14600358739824
20
51.539040291767257
30
0
40
1.7000000000000171
0
CIRCLE
5
136
100
AcDbEntity
8
0
100
AcDbCircle
10
-196.08288582798684
20
-38.540035964534795
30
0
40
1.7000000000000171
0
CIRCLE
5
137
100
AcDbEntity
8
0
100
AcDbCircle
10
-97.999999999999972
20
-58.053006778445337
30
0
40
1.6999999999999993
0
CIRCLE
5
138
100
AcDbEntity
8
0
100
AcDbCircle
10
-204.10000000000002
20
-25.222872516807996
30
0
40
1.7000000000000171
0
CIRCLE
5
139
100
AcDbEntity
8
0
100
AcDbCircle
10
-154.50629236537483
20
58.144522998758532
30
0
40
1.6999999999999993
0
CIRCLE
5
140
100
AcDbEntity
8
0
100
AcDbCircle
10
-160.85786437626922
20
2.1421356237308364
30
0
40
1.6499999999999915
0
CIRCLE
5
141
100
AcDbEntity
8
0
100
AcDbCircle
10
189.14213562373092
20
-26.142135623730994
30
0
40
1.7499999999999716
0
CIRCLE
5
142
100
AcDbEntity
8
0
100
AcDbCircle
10
189.14213562373092
20
2.142135623730903
30
0
40
1.7499999999999716
0
CIRCLE
5
143
100
AcDbEntity
8
0
100
AcDbCircle
10
-160.85786437626922
20
-26.142135623731065
30
0
40
1.6499999999999915
0
CIRCLE
5
144
100
AcDbEntity
8
0
100
AcDbCircle
10
-189.14213562373109
20
2.1421356237308409
30
0
40
1.7500000000000071
0
CIRCLE
5
145
100
AcDbEntity
8
0
100
AcDbCircle
10
160.85786437626908
20
-26.142135623730994
30
0
40
1.7499999999999716
0
CIRCLE
5
146
100
AcDbEntity
8
0
100
AcDbCircle
10
160.85786437626908
20
2.1421356237309075
30
0
40
1.7499999999999716
0
CIRCLE
5
147
100
AcDbEntity
8
0
100
AcDbCircle
10
-189.14213562373112
20
-26.142135623731058
30
0
40
1.7500000000000071
0
CIRCLE
5
148
100
AcDbEntity
8
0
100
AcDbCircle
10
117.81690585677502
20
-21.811107882911827
30
3.0268992705239895e-16
40
1.5000000000000036
0
CIRCLE
5
149
100
AcDbEntity
8
0
100
AcDbCircle
10
117.81690585677502
20
-39.81110788291182
30
5.5249010759305907e-16
40
1.5000000000000036
0
CIRCLE
5
150
100
AcDbEntity
8
0
100
AcDbCircle
10
139.31690585677504
20
-30.811107882911841
30
4.2759001732272926e-16
40
1.6499999999999915
0
CIRCLE
5
151
100
AcDbEntity
8
0
100
AcDbCircle
10
123.31690585677504
20
-30.811107882911823
30
4.2759001732272906e-16
40
5.9999999999999964
0
CIRCLE
5
152
100
AcDbEntity
8
0
100
AcDbCircle
10
128.81690585677504
20
-21.811107882911834
30
3.0268992705239895e-16
40
1.5000000000000036
0
CIRCLE
5
153
100
AcDbEntity
8
0
100
AcDbCircle
10
128.81690585677504
20
-39.811107882911827
30
5.5249010759305917e-16
40
1.5000000000000036
0
CIRCLE
5
154
100
AcDbEntity
8
0
100
AcDbCircle
10
115.31690585677502
20
-44.667514343462841
30
6.1988628596108539e-16
40
1.6499999999999915
0
CIRCLE
5
155
100
AcDbEntity
8
0
100
AcDbCircle
10
115.31690585677502
20
-16.954701422360799
30
2.3529374868437253e-16
40
1.6499999999999915
0
CIRCLE
5
156
100
AcDbEntity
8
0
100
AcDbCircle
10
133.13886764139318
20
38.26582185780228
30
-1.5931348681026276e-15
40
1.5000000000000036
0
CIRCLE
5
157
100
AcDbEntity
8
0
100
AcDbCircle
10
133.13886764139318
20
20.265821857802287
30
-8.4373432648064736e-16
40
1.5000000000000036
0
CIRCLE
5
158
100
AcDbEntity
8
0
100
AcDbCircle
10
154.63886764139318
20
29.265821857802266
30
-1.2184345972916369e-15
40
1.6499999999999915
0
CIRCLE
5
159
100
AcDbEntity
8
0
100
AcDbCircle
10
138.6388676413932
20
29.265821857802283
30
-1.2184345972916375e-15
40
5.9999999999999964
0
CIRCLE
5
160
100
AcDbEntity
8
0
100
AcDbCircle
10
144.1388676413932
20
38.265821857802266
30
-1.5931348681026272e-15
40
1.5000000000000036
0
CIRCLE
5
161
100
AcDbEntity
8
0
100
AcDbCircle
10
144.1388676413932
20
20.26582185780228
30
-8.4373432648064677e-16
40
1.5000000000000036
0
CIRCLE
5
162
100
AcDbEntity
8
0
100
AcDbCircle
10
130.63886764139318
20
15.409415397251269
30
-6.415457913765685e-16
40
1.6499999999999915
0
CIRCLE
5
163
100
AcDbEntity
8
0
100
AcDbCircle
10
130.63886764139318
20
43.122228318353308
30
-1.7953234032067069e-15
40
1.6499999999999915
0
CIRCLE
5
164
100
AcDbEntity
8
0
100
AcDbCircle
10
-117.81690585677504
20
-39.81110788291182
30
0
40
1.5000000000000036
0
CIRCLE
5
165
100
AcDbEntity
8
0
100
AcDbCircle
10
-117.81690585677504
20
-21.811107882911827
30
0
40
1.5000000000000036
0
CIRCLE
5
166
100
AcDbEntity
8
0
100
AcDbCircle
10
-139.31690585677504
20
-30.811107882911813
30
0
40
1.6500000000000092
0
CIRCLE
5
167
100
AcDbEntity
8
0
100
AcDbCircle
10
-123.31690585677504
20
-30.811107882911823
30
0
40
5.9999999999999964
0
CIRCLE
5
168
100
AcDbEntity
8
0
100
AcDbCircle
10
-128.81690585677504
20
-39.81110788291182
30
0
40
1.5000000000000036
0
CIRCLE
5
169
100
AcDbEntity
8
0
100
AcDbCircle
10
-128.81690585677501
20
-21.811107882911827
30
0
40
1.5000000000000036
0
CIRCLE
5
170
100
AcDbEntity
8
0
100
AcDbCircle
10
-115.31690585677502
20
-16.954701422360809
30
0
40
1.6499999999999915
0
CIRCLE
5
171
100
AcDbEntity
8
0
100
AcDbCircle
10
-115.31690585677504
20
-44.667514343462855
30
0
40
1.6500000000000092
0
CIRCLE
5
172
100
AcDbEntity
8
0
100
AcDbCircle
10
-144.13886764139318
20
38.265821857802287
30
0
40
1.5000000000000036
0
CIRCLE
5
173
100
AcDbEntity
8
0
100
AcDbCircle
10
-133.1388676413932
20
20.265821857802294
30
0
40
1.5000000000000036
0
CIRCLE
5
174
100
AcDbEntity
8
0
100
AcDbCircle
10
-138.6388676413932
20
29.265821857802294
30
0
40
5.9999999999999964
0
CIRCLE
5
175
100
AcDbEntity
8
0
100
AcDbCircle
10
-133.1388676413932
20
38.265821857802287
30
0
40
1.5000000000000036
0
CIRCLE
5
176
100
AcDbEntity
8
0
100
AcDbCircle
10
-130.63886764139318
20
43.122228318353308
30
0
40
1.6499999999999915
0
CIRCLE
5
177
100
AcDbEntity
8
0
100
AcDbCircle
10
-130.6388676413932
20
15.409415397251266
30
0
40
1.6500000000000092
0
CIRCLE
5
178
100
AcDbEntity
8
0
100
AcDbCircle
10
-154.6388676413932
20
29.265821857802301
30
0
40
1.6499999999999915
0
CIRCLE
5
179
100
AcDbEntity
8
0
100
AcDbCircle
10
-144.1388676413932
20
20.265821857802298
30
0
40
1.5000000000000036
0
CIRCLE
5
180
100
AcDbEntity
8
0
100
AcDbCircle
10
175
20
-12.000000000000046
30
0
40
16.000000000000014
0
CIRCLE
5
181
100
AcDbEntity
8
0
100
AcDbCircle
10
-175
20
-12.000000000000046
30
0
40
15.999999999999996
0
ARC
5
182
100
AcDbEntity
8
0
100
AcDbCircle
10
-159.26661409064374
20
-60.999999999999972
30
0
40
2.9999999999999263
100
AcDbArc
50
242.52556837372276
51
270.00000000000057
0
LINE
5
183
100
AcDbEntity
8
0
100
AcDbLine
10
-159.26661409064371
20
-63.999999999999901
30
0
11
159.26661409064366
21
-63.999999999999169
31
0
0
ARC
5
184
100
AcDbEntity
8
0
100
AcDbCircle
10
159.2666140906436
20
-60.999999999998941
30
0
40
3.0000000000002292
100
AcDbArc
50
270.00000000000108
51
297.4744316262761
0
LINE
5
185
100
AcDbEntity
8
0
100
AcDbLine
10
160.65067230056962
20
-63.66165040370295
30
0
11
208.38405820992591
21
-38.840289730838514
31
0
0
ARC
5
186
100
AcDbEntity
8
0
100
AcDbCircle
10
207.00000000000023
20
-36.178639327134839
30
0
40
2.9999999999997677
100
AcDbArc
50
-62.525568373726742
51
0
0
LINE
5
187
100
AcDbEntity
8
0
100
AcDbLine
10
210.00000000000006
20
-36.178639327134697
30
0
11
210
21
12.867956598541763
31
0
0
ARC
5
188
100
AcDbEntity
8
0
100
AcDbCircle
10
206.99999999999932
20
12.867956598541435
30
0
40
3.0000000000006821
100
AcDbArc
50
0
51
41.347777219690073
0
LINE
5
189
100
AcDbEntity
8
0
100
AcDbLine
10
209.25214055076822
20
14.849840283217812
30
0
11
166.89594235748487
21
62.981883684675992
31
0
0
ARC
5
190
100
AcDbEntity
8
0
100
AcDbCircle
10
164.64380180671662
20
60.999999999999844
30
0
40
3.0000000000000435
100
AcDbArc
50
41.347777219694983
51
90
0
LINE
5
191
100
AcDbEntity
8
0
100
AcDbLine
10
164.64380180671662
20
63.999999999999901
30
0
11
-164.64380180671674
21
63.999999999999666
31
0
0
ARC
5
192
100
AcDbEntity
8
0
100
AcDbCircle
10
-164.64380180671671
20
60.999999999999588
30
0
40
3.0000000000000782
100
AcDbArc
50
90.00000000000054
51
138.65222278030564
0
LINE
5
193
100
AcDbEntity
8
0
100
AcDbLine
10
-166.89594235748501
20
62.981883684675743
30
0
11
-209.25214055076825
21
14.849840283217857
31
0
0
ARC
5
194
100
AcDbEntity
8
0
100
AcDbCircle
10
-207.00000000000003
20
12.867956598541772
30
0
40
3.0000000000000027
100
AcDbArc
50
138.65222278030595
51
180
0
LINE
5
195
100
AcDbEntity
8
0
100
AcDbLine
10
-210.00000000000003
20
12.867956598541754
30
0
11
-210
21
-36.178639327134754
31
0
0
ARC
5
196
100
AcDbEntity
8
0
100
AcDbCircle
10
-207
20
-36.178639327134754
30
0
40
3.0000000000000071
100
AcDbArc
50
180
51
242.52556837372336
0
LINE
5
197
100
AcDbEntity
8
0
100
AcDbLine
10
-208.38405820992597
20
-38.840289730838542
30
0
11
-160.65067230056968
21
-63.661650403703689
31
0
0
ARC
5
198
100
AcDbEntity
8
0
100
AcDbCircle
10
-99.138867641393233
20
18.265821842901133
30
0
40
0.99999999999997868
100
AcDbArc
50
180
51
270
0
LINE
5
199
100
AcDbEntity
8
0
100
AcDbLine
10
-96.138867626492043
20
17.265821842901129
30
0
11
-99.138867641393219
21
17.265821842901143
31
0
0
ARC
5
200
100
AcDbEntity
8
0
100
AcDbCircle
10
-96.138867626492043
20
18.265821842901133
30
0
40
1.0000000000000009
100
AcDbArc
50
-90
51
0
0
LINE
5
201
100
AcDbEntity
8
0
100
AcDbLine
10
-95.138867626492072
20
40.265821872703434
30
0
11
-95.138867626492072
21
18.265821842901133
31
0
0
ARC
5
202
100
AcDbEntity
8
0
100
AcDbCircle
10
-96.138867626492043
20
40.265821872703434
30
0
40
0.99999999999999645
100
AcDbArc
50
0
51
90
0
LINE
5
203
100
AcDbEntity
8
0
100
AcDbLine
10
-99.138867641393233
20
41.265821872703434
30
0
11
-96.138867626492072
21
41.265821872703434
31
0
0
ARC
5
204
100
AcDbEntity
8
0
100
AcDbCircle
10
-99.138867641393233
20
40.265821872703434
30
0
40
0.99999999999999645
100
AcDbArc
50
90
51
180
0
LINE
5
205
100
AcDbEntity
8
0
100
AcDbLine
10
-100.13886764139322
20
18.265821842901133
30
0
11
-100.13886764139322
21
40.265821872703434
31
0
0
ARC
5
206
100
AcDbEntity
8
0
100
AcDbCircle
10
96.138867626492015
20
18.265821842901239
30
0
40
1.0000000000000142
100
AcDbArc
50
180
51
270
0
LINE
5
207
100
AcDbEntity
8
0
100
AcDbLine
10
99.138867641393134
20
17.265821842901239
30
0
11
96.138867626492015
21
17.265821842901225
31
0
0
ARC
5
208
100
AcDbEntity
8
0
100
AcDbCircle
10
99.138867641393134
20
18.265821842901243
30
0
40
1.0000000000000009
100
AcDbArc
50
-90
51
0
0
LINE
5
209
100
AcDbEntity
8
0
100
AcDbLine
10
100.13886764139308
20
40.26582187270354
30
0
11
100.13886764139315
21
18.265821842901246
31
0
0
ARC
5
210
100
AcDbEntity
8
0
100
AcDbCircle
10
99.138867641393063
20
40.26582187270354
30
0
40
1.0000000000000142
100
AcDbArc
50
0
51
90
0
LINE
5
211
100
AcDbEntity
8
0
100
AcDbLine
10
96.138867626491944
20
41.26582187270354
30
0
11
99.138867641393063
21
41.265821872703555
31
0
0
ARC
5
212
100
AcDbEntity
8
0
100
AcDbCircle
10
96.138867626491944
20
40.26582187270354
30
0
40
0.99999999999999645
100
AcDbArc
50
90
51
180
0
LINE
5
213
100
AcDbEntity
8
0
100
AcDbLine
10
95.138867626492001
20
18.265821842901232
30
0
11
95.13886762649193
21
40.26582187270354
31
0
0
ENDSEC
0
SECTION
2
OBJECTS
0
DICTIONARY
5
C
100
AcDbDictionary
3
ACAD_GROUP
350
D
3
ACAD_MLINESTYLE
350
17
0
DICTIONARY
5
D
100
AcDbDictionary
0
DICTIONARY
5
1A
330
C
100
AcDbDictionary
0
DICTIONARY
5
17
100
AcDbDictionary
0
ENDSEC
0
EOF
